<?xml version="1.0" encoding="utf-8"?>
<!-- Generator: Adobe Illustrator 24.0.1, SVG Export Plug-In . SVG Version: 6.00 Build 0)  -->
<svg version="1.1" id="Layer_2" xmlns="http://www.w3.org/2000/svg" xmlns:xlink="http://www.w3.org/1999/xlink" x="0px" y="0px"
	 viewBox="0 0 597.5 169.14" style="enable-background:new 0 0 597.5 169.14;" xml:space="preserve">
<style type="text/css">
	.st0{fill:#FFFFFF;}
	.st1{fill:#1F3E75;}
	.st2{fill:#F6EC41;stroke:#1F3E75;stroke-width:0.9954;stroke-miterlimit:10;}
	.st3{fill:#EB3028;stroke:#1F3E75;stroke-width:0.9772;stroke-miterlimit:10;}
	.st4{fill:none;stroke:#1F3E75;stroke-width:0.9954;stroke-miterlimit:10;}
	.st5{fill:#1F3E75;stroke:#1F3E75;stroke-width:0.404;stroke-miterlimit:10;}
	.st6{fill:none;stroke:#1F3E75;stroke-width:0.404;stroke-miterlimit:10;}
</style>
<g>
	<polygon class="st0" points="199.32,124.95 7.31,120.25 8.3,61.78 200.06,61.28 	"/>
	<g>
		<path class="st1" d="M6.78,114.19c0,0,32.57-20.44,79-7.28s63.4,13.86,80.03,11.43c22.73-3.31,33.95-10.74,33.95-10.74
			s0.35,11.78,1.39,21.13c1.04,9.35,2.43,16.63,2.43,16.63s-26.25,19.23-65.35,13.98c-32.9-4.42-52.11-14.32-79.82-14.32
			S6.43,160.97,6.43,160.97L6.78,114.19z"/>
		<path class="st1" d="M6.78,33.46c0,0,23.21-15.24,54.74-6.93s64.79,27.37,92.16,26.33c16.61-0.63,24.05-2.93,28.41-4.85
			c10.57-4.66,8.67-14.14,8.67-14.14s-1.4,5.59-2.05,6.69c-0.65,1.1-1.6,2.25-1.6,2.25s0.55-6.98,0.66-15.97
			c0.12-9.46-0.83-18.68-0.83-18.68s10.74,0.69,13.17,14.21s0.35,44.69,0.35,44.69s-18.02,10.74-40.19,11.09
			c-22.17,0.35-47.47,0-65.83-5.89c-18.36-5.89-48.85-9.7-63.75-7.62c-14.9,2.08-22.87,9.01-22.87,9.01L6.78,33.46z"/>
		<circle class="st2" cx="68.17" cy="86.72" r="17.22"/>
		<path class="st3" d="M87.48,114.61c-2.87,2.16-6.1,3.88-9.58,5.04c-3.38,1.13-7.01,1.75-10.77,1.75
			c-18.71,0-33.89-15.17-33.89-33.89s15.17-33.89,33.89-33.89c6.09,0,11.8,1.61,16.74,4.42c2.15,1.23,4.16,2.68,5.98,4.33
			L78.15,72.63c-1.02-0.71-2.12-1.31-3.28-1.78c-1.96-0.8-4.11-1.24-6.36-1.24c-9.34,0-16.9,7.57-16.9,16.9s7.57,16.9,16.9,16.9
			c1.96,0,3.89-0.22,5.64-0.83c1.11-0.39,2.23-0.77,3.22-1.37L87.48,114.61z"/>
		<line class="st4" x1="8.33" y1="72.47" x2="7.29" y2="114.97"/>
		<line class="st4" x1="200.04" y1="66.53" x2="199.29" y2="109.22"/>
		<g>
			<g>
				<path class="st1" d="M101.5,99.45c1.13-1.27,2.5-2.34,4.01-3.17c1.51-0.82,3.23-1.34,5-1.31c1.74,0.07,3.47,0.61,4.93,1.55
					c1.46,0.94,2.67,2.25,3.44,3.77c-0.49-0.7-1.04-1.34-1.67-1.89c-0.61-0.57-1.28-1.08-2.01-1.48c-1.44-0.82-3.06-1.32-4.71-1.34
					c-0.82-0.05-1.63,0.08-2.44,0.26c-0.8,0.21-1.57,0.52-2.34,0.86C104.22,97.41,102.81,98.36,101.5,99.45z"/>
			</g>
			<g>
				<path class="st1" d="M167.87,102.46c0.73-1.6,1.95-2.99,3.45-3.98c1.5-1.01,3.32-1.49,5.12-1.5c1.8,0.02,3.61,0.51,5.14,1.45
					c1.51,0.96,2.79,2.29,3.58,3.87c-0.5-0.72-1.08-1.38-1.73-1.95c-0.64-0.59-1.33-1.1-2.09-1.51c-0.76-0.4-1.54-0.74-2.37-0.95
					c-0.83-0.2-1.68-0.3-2.53-0.32c-1.71-0.04-3.4,0.42-4.88,1.29C170.08,99.73,168.81,100.98,167.87,102.46z"/>
			</g>
			<g>
				<path class="st1" d="M127.92,96.44c3.28,0.17,6.56,0.36,9.84,0.58l9.83,0.69l9.82,0.78c3.27,0.27,6.54,0.57,9.81,0.89
					c-3.28-0.17-6.56-0.36-9.84-0.58l-9.83-0.69l-9.82-0.78C134.46,97.06,131.19,96.76,127.92,96.44z"/>
			</g>
			<polyline class="st5" points="161.69,100.12 138.95,97.3 162.19,99.11 160.68,102.62 			"/>
			<g>
				<path class="st1" d="M134.56,94.07c-3.48-0.64-6.97-1.25-10.47-1.77c-1.75-0.26-3.5-0.5-5.26-0.66
					c-1.75-0.13-3.53-0.18-5.29-0.25c-3.54-0.12-7.07-0.2-10.61-0.23c-1.77,0-3.53-0.02-5.27,0.11l-5.32,0.29l0.65-0.7
					c0.09,1.44,0.17,2.88,0.21,4.33l0.07,4.32h-1.62l0.06-4.3c0-1.42-0.03-2.86-0.07-4.29l-0.02-0.68l0.67-0.01l5.29-0.12
					c1.8-0.07,3.58,0,5.35,0.06c3.55,0.14,7.08,0.34,10.62,0.56c1.77,0.12,3.53,0.23,5.31,0.42c1.77,0.21,3.52,0.51,5.26,0.82
					C127.63,92.61,131.1,93.32,134.56,94.07z"/>
			</g>
			<g>
				<path class="st1" d="M99.72,89.45c3.51-0.88,7.01-1.78,10.53-2.59c1.76-0.41,3.52-0.81,5.3-1.18c1.77-0.4,3.58-0.57,5.36-0.87
					c3.57-0.55,7.18-1.04,10.82-0.99c3.63,0.17,7.22,0.49,10.82,0.86l0.03,0l0.02,0.01l9.73,4.65l9.7,4.71l-9.8-4.52l-9.77-4.58
					l0.05,0.01c-3.59-0.34-7.2-0.63-10.8-0.77c-3.6-0.06-7.19,0.38-10.76,0.9c-1.79,0.29-3.59,0.45-5.35,0.83
					c-1.77,0.35-3.54,0.74-5.3,1.13L99.72,89.45z"/>
			</g>
			<line class="st6" x1="121.73" y1="84.9" x2="121.57" y2="90.75"/>
			<line class="st6" x1="124.57" y1="84.49" x2="124.57" y2="91.09"/>
			<path class="st5" d="M124.74,85.91c0,0,4.63-0.3,7.56-0.12c2.92,0.18,7.49,0.29,7.49,0.29l2.34-1.17c0,0-5.49-0.76-9.53-0.87
				s-7.85,0.46-7.85,0.46L124.74,85.91z"/>
			<path class="st6" d="M139.79,86.07c0,0,3.51,1.67,7.36,3.84s7.02,4.01,7.02,4.01"/>
			<g>
				<path class="st1" d="M131.43,92.66c2.16,0.21,4.3,0.63,6.4,1.08c2.11,0.41,4.26,0.58,6.42,0.78c-2.17,0.11-4.35-0.02-6.5-0.4
					l-3.17-0.7C133.53,93.18,132.48,92.94,131.43,92.66z"/>
			</g>
			<line class="st6" x1="149.15" y1="94.43" x2="155.83" y2="94.27"/>
			<g>
				<path class="st1" d="M152.32,95.27c1.95-0.12,3.89-0.27,5.83-0.45c0.97-0.08,1.94-0.17,2.9-0.28c0.48-0.06,0.96-0.13,1.42-0.22
					c0.42-0.09,0.85-0.36,1.28-0.57l0.06-0.03l0.07,0.01l8.58,0.84c2.86,0.26,5.73,0.58,8.57,1.06c2.83,0.5,5.71,1.16,8.26,2.57
					c2.56,1.37,4.83,3.2,6.82,5.27c-2.09-1.97-4.46-3.63-7-4.93c-2.55-1.29-5.36-1.88-8.18-2.37c-2.82-0.46-5.68-0.72-8.54-1.03
					l-8.56-0.95l0.13-0.03c-0.45,0.21-0.86,0.47-1.4,0.57c-0.5,0.09-0.98,0.15-1.47,0.19c-0.98,0.09-1.95,0.15-2.92,0.2
					C156.22,95.2,154.27,95.24,152.32,95.27z"/>
			</g>
			<g>
				<path class="st1" d="M184.59,96.94c0.54,0.46,1.11,0.88,1.7,1.25c0.59,0.37,1.2,0.71,1.85,0.95c1.29,0.55,2.64,0.97,3.97,1.47
					c-1.42-0.17-2.79-0.58-4.12-1.1C186.66,98.96,185.45,98.08,184.59,96.94z"/>
			</g>
			<polygon class="st1" points="147.48,90.75 149.91,93.95 153.25,93.95 			"/>
			<path class="st6" d="M146.14,95.27"/>
			<path class="st1" d="M146.14,95.27c0,0,0.17,0.33,1.34,0.33s1.34-0.5,1.34-0.5s-1.17-2.34-2.01-2.84c-0.84-0.5-3.18-1-3.18-1
				s-0.33,1.17,0,1.84c0.33,0.67,1.17,0.5,1.84,0.84C146.14,94.27,146.14,95.27,146.14,95.27z"/>
		</g>
	</g>
</g>
<g>
	<path class="st1" d="M260.17,70.05c-1.62,0.81-5.25,1.67-9.99,1.67c-13.45,0-20.38-8.37-20.38-19.45
		c0-13.28,9.47-20.67,21.24-20.67c4.56,0,8.02,0.92,9.58,1.73l-1.79,6.98c-1.79-0.75-4.27-1.44-7.39-1.44
		c-6.98,0-12.41,4.21-12.41,12.87c0,7.79,4.62,12.7,12.47,12.7c2.66,0,5.6-0.58,7.33-1.27L260.17,70.05z"/>
	<path class="st1" d="M292.43,56.72c0,10.33-7.33,15.07-14.89,15.07c-8.25,0-14.6-5.43-14.6-14.55c0-9.12,6-14.95,15.07-14.95
		C286.66,42.29,292.43,48.23,292.43,56.72z M272,57.01c0,4.85,2.02,8.49,5.77,8.49c3.41,0,5.6-3.41,5.6-8.49
		c0-4.21-1.62-8.49-5.6-8.49C273.56,48.52,272,52.85,272,57.01z"/>
	<path class="st1" d="M297.85,30.17h8.77v40.98h-8.77V30.17z"/>
	<path class="st1" d="M341.6,56.72c0,10.33-7.33,15.07-14.89,15.07c-8.25,0-14.6-5.43-14.6-14.55c0-9.12,6-14.95,15.07-14.95
		C335.83,42.29,341.6,48.23,341.6,56.72z M321.17,57.01c0,4.85,2.02,8.49,5.77,8.49c3.41,0,5.6-3.41,5.6-8.49
		c0-4.21-1.62-8.49-5.6-8.49C322.73,48.52,321.17,52.85,321.17,57.01z"/>
	<path class="st1" d="M347.03,52.22c0-4.16-0.12-6.87-0.23-9.29h7.56l0.29,5.2h0.23c1.44-4.1,4.91-5.83,7.62-5.83
		c0.81,0,1.21,0,1.85,0.12v8.25c-0.63-0.12-1.38-0.23-2.37-0.23c-3.23,0-5.43,1.73-6,4.44c-0.12,0.58-0.17,1.27-0.17,1.96v14.32
		h-8.77V52.22z"/>
	<path class="st1" d="M384.37,71.15l-0.52-2.83h-0.17c-1.85,2.25-4.73,3.46-8.08,3.46c-5.71,0-9.12-4.16-9.12-8.66
		c0-7.33,6.58-10.85,16.57-10.79v-0.4c0-1.5-0.81-3.64-5.14-3.64c-2.89,0-5.95,0.98-7.79,2.14l-1.62-5.66
		c1.96-1.1,5.83-2.48,10.97-2.48c9.41,0,12.41,5.54,12.41,12.18v9.81c0,2.71,0.12,5.31,0.4,6.87H384.37z M383.33,57.81
		c-4.62-0.06-8.2,1.04-8.2,4.44c0,2.25,1.5,3.35,3.46,3.35c2.19,0,3.98-1.44,4.56-3.23c0.12-0.46,0.17-0.98,0.17-1.5V57.81z"/>
	<path class="st1" d="M426.16,30.17v32.56c0,3.17,0.12,6.52,0.23,8.43h-7.79l-0.4-4.16h-0.12c-1.79,3.17-5.2,4.79-8.83,4.79
		c-6.7,0-12.06-5.71-12.06-14.49c-0.06-9.52,5.89-15.01,12.64-15.01c3.46,0,6.18,1.21,7.45,3.17h0.12v-15.3H426.16z M417.39,54.87
		c0-0.46-0.06-1.1-0.12-1.56c-0.52-2.37-2.42-4.33-5.14-4.33c-3.98,0-6.06,3.58-6.06,8.02c0,4.79,2.37,7.79,6,7.79
		c2.54,0,4.56-1.73,5.08-4.21c0.17-0.63,0.23-1.27,0.23-2.02V54.87z"/>
	<path class="st1" d="M461.08,56.72c0,10.33-7.33,15.07-14.89,15.07c-8.25,0-14.6-5.43-14.6-14.55c0-9.12,6-14.95,15.07-14.95
		C455.31,42.29,461.08,48.23,461.08,56.72z M440.64,57.01c0,4.85,2.02,8.49,5.77,8.49c3.41,0,5.6-3.41,5.6-8.49
		c0-4.21-1.62-8.49-5.6-8.49C442.2,48.52,440.64,52.85,440.64,57.01z"/>
	<path class="st1" d="M260.17,139.31c-1.62,0.81-5.25,1.67-9.99,1.67c-13.45,0-20.38-8.37-20.38-19.45
		c0-13.28,9.47-20.67,21.24-20.67c4.56,0,8.02,0.92,9.58,1.73l-1.79,6.98c-1.79-0.75-4.27-1.44-7.39-1.44
		c-6.98,0-12.41,4.21-12.41,12.87c0,7.79,4.62,12.7,12.47,12.7c2.66,0,5.6-0.58,7.33-1.27L260.17,139.31z"/>
	<path class="st1" d="M292.43,125.98c0,10.33-7.33,15.07-14.89,15.07c-8.25,0-14.6-5.43-14.6-14.55c0-9.12,6-14.95,15.07-14.95
		C286.66,111.55,292.43,117.49,292.43,125.98z M272,126.27c0,4.85,2.02,8.49,5.77,8.49c3.41,0,5.6-3.41,5.6-8.49
		c0-4.21-1.62-8.49-5.6-8.49C273.56,117.78,272,122.11,272,126.27z"/>
	<path class="st1" d="M297.85,121.48c0-4.16-0.12-6.87-0.23-9.29h7.56l0.29,5.2h0.23c1.44-4.1,4.91-5.83,7.62-5.83
		c0.81,0,1.21,0,1.85,0.12v8.25c-0.63-0.12-1.38-0.23-2.37-0.23c-3.23,0-5.43,1.73-6,4.44c-0.12,0.58-0.17,1.27-0.17,1.96v14.32
		h-8.77V121.48z"/>
	<path class="st1" d="M327.35,112.18l3.81,13.1c0.69,2.37,1.21,4.62,1.62,6.87h0.17c0.46-2.31,0.92-4.44,1.56-6.87l3.64-13.1h9.24
		l-10.51,28.23h-8.77l-10.27-28.23H327.35z"/>
	<path class="st1" d="M357.3,129.09c0.29,3.64,3.87,5.37,7.97,5.37c3,0,5.43-0.4,7.79-1.15l1.16,5.95
		c-2.89,1.15-6.41,1.73-10.22,1.73c-9.58,0-15.07-5.54-15.07-14.37c0-7.16,4.44-15.07,14.26-15.07c9.12,0,12.58,7.1,12.58,14.08
		c0,1.5-0.17,2.83-0.29,3.46H357.3z M367.63,123.09c0-2.14-0.92-5.71-4.96-5.71c-3.69,0-5.2,3.35-5.43,5.71H367.63z"/>
	<path class="st1" d="M390.83,104.1v8.08h6.29v6.47h-6.29v10.22c0,3.41,0.81,4.96,3.46,4.96c1.1,0,1.96-0.12,2.6-0.23l0.06,6.64
		c-1.15,0.46-3.23,0.75-5.71,0.75c-2.83,0-5.2-0.98-6.58-2.42c-1.62-1.67-2.42-4.39-2.42-8.37v-11.54h-3.75v-6.47h3.75v-6.12
		L390.83,104.1z"/>
	<path class="st1" d="M412.01,104.1v8.08h6.29v6.47h-6.29v10.22c0,3.41,0.81,4.96,3.46,4.96c1.1,0,1.96-0.12,2.6-0.23l0.06,6.64
		c-1.15,0.46-3.23,0.75-5.71,0.75c-2.83,0-5.2-0.98-6.58-2.42c-1.62-1.67-2.42-4.39-2.42-8.37v-11.54h-3.75v-6.47h3.75v-6.12
		L412.01,104.1z"/>
	<path class="st1" d="M429.85,129.09c0.29,3.64,3.87,5.37,7.97,5.37c3,0,5.43-0.4,7.79-1.15l1.16,5.95
		c-2.89,1.15-6.41,1.73-10.22,1.73c-9.58,0-15.07-5.54-15.07-14.37c0-7.16,4.44-15.07,14.26-15.07c9.12,0,12.58,7.1,12.58,14.08
		c0,1.5-0.17,2.83-0.29,3.46H429.85z M440.18,123.09c0-2.14-0.92-5.71-4.96-5.71c-3.69,0-5.2,3.35-5.43,5.71H440.18z"/>
	<path class="st1" d="M494.09,139.31c-1.62,0.81-5.25,1.67-9.99,1.67c-13.45,0-20.38-8.37-20.38-19.45
		c0-13.28,9.47-20.67,21.24-20.67c4.56,0,8.02,0.92,9.58,1.73l-1.79,6.98c-1.79-0.75-4.27-1.44-7.39-1.44
		c-6.98,0-12.41,4.21-12.41,12.87c0,7.79,4.62,12.7,12.47,12.7c2.66,0,5.6-0.58,7.33-1.27L494.09,139.31z"/>
	<path class="st1" d="M499.4,99.42h8.77v40.98h-8.77V99.42z"/>
	<path class="st1" d="M541.88,131.35c0,3.69,0.12,6.7,0.23,9.06h-7.62l-0.4-3.98h-0.17c-1.1,1.73-3.75,4.62-8.83,4.62
		c-5.71,0-9.93-3.58-9.93-12.29v-16.57h8.83v15.18c0,4.1,1.33,6.58,4.39,6.58c2.42,0,3.81-1.67,4.39-3.06
		c0.23-0.52,0.29-1.21,0.29-1.9v-16.8h8.83V131.35z"/>
	<path class="st1" d="M548.68,140.41c0.12-1.85,0.23-5.25,0.23-8.43V99.42h8.77v16.1h0.12c1.67-2.42,4.62-3.98,8.54-3.98
		c6.75,0,11.72,5.6,11.66,14.26c0,10.16-6.46,15.24-12.93,15.24c-3.29,0-6.46-1.21-8.49-4.56h-0.12l-0.35,3.93H548.68z
		 M557.69,128.4c0,0.58,0.06,1.1,0.17,1.56c0.58,2.37,2.6,4.16,5.14,4.16c3.75,0,6.06-2.89,6.06-7.97c0-4.39-1.96-7.85-6.06-7.85
		c-2.37,0-4.56,1.79-5.14,4.33c-0.12,0.52-0.17,1.04-0.17,1.62V128.4z"/>
</g>
</svg>
